<svg width="31" height="33" viewBox="0 0 31 33" fill="none" xmlns="http://www.w3.org/2000/svg">
<path d="M30.4163 1.01762V15.6322C30.4163 16.1929 29.9473 16.6498 29.3649 16.6498H16.4112C15.8319 16.6498 15.3599 17.1037 15.3599 17.6674V31.9853C15.3599 32.5461 14.8909 33.003 14.3085 33.003H1.05137C0.472045 33.003 0 32.549 0 31.9853V17.3708C0 16.81 0.46898 16.3531 1.05137 16.3531H14.005C14.5844 16.3531 15.0564 15.8992 15.0564 15.3355V1.01762C15.0564 0.456891 15.5254 0 16.1078 0H29.368C29.9473 0 30.4193 0.453924 30.4193 1.01762H30.4163Z" fill="#5A00DB"/>
<path d="M29.9504 19.854H19.0504C18.8473 19.854 18.6826 20.0134 18.6826 20.21V30.7601C18.6826 30.9567 18.8473 31.1161 19.0504 31.1161H29.9504C30.1535 31.1161 30.3182 30.9567 30.3182 30.7601V20.21C30.3182 20.0134 30.1535 19.854 29.9504 19.854Z" fill="#5A00DB"/>
</svg>