<svg width="202" height="145" viewBox="0 0 202 145" fill="none" xmlns="http://www.w3.org/2000/svg">
<g clip-path="url(#clip0_12_3857)">
<path d="M167.573 46.364L138.394 17.1688C132.962 11.7094 126.501 7.38115 119.385 4.43423C112.269 1.48731 104.64 -0.0198131 96.9381 9.92719e-06H59.125C48.0231 0.0133082 37.3798 4.4294 29.5296 12.2796C21.6794 20.1298 17.2633 30.7731 17.25 41.875V159.125C17.2633 170.227 21.6794 180.87 29.5296 188.72C37.3798 196.571 48.0231 200.987 59.125 201H142.875C153.977 200.987 164.62 196.571 172.47 188.72C180.321 180.87 184.737 170.227 184.75 159.125V87.8119C184.771 80.1104 183.263 72.4814 180.315 65.3667C177.366 58.252 173.035 51.793 167.573 46.364ZM155.731 58.2063C158.288 60.8372 160.487 63.794 162.271 67H126.125C123.904 67 121.774 66.1176 120.203 64.547C118.632 62.9764 117.75 60.8462 117.75 58.625V22.4785C120.957 24.2617 123.916 26.458 126.552 29.011L155.731 58.2063ZM168 159.125C168 165.789 165.353 172.179 160.641 176.891C155.929 181.603 149.539 184.25 142.875 184.25H59.125C52.4614 184.25 46.0708 181.603 41.3589 176.891C36.6471 172.179 34 165.789 34 159.125V41.875C34 35.2114 36.6471 28.8208 41.3589 24.109C46.0708 19.3971 52.4614 16.75 59.125 16.75H96.9381C98.3116 16.75 99.6432 17.018 101 17.1436V58.625C101 65.2886 103.647 71.6792 108.359 76.3911C113.071 81.1029 119.461 83.75 126.125 83.75H167.606C167.732 85.1068 168 86.43 168 87.8119V159.125Z" fill="white" fill-opacity="0.1"/>
</g>
<defs>
<clipPath id="clip0_12_3857">
<rect width="201" height="201" fill="white" transform="translate(0.5)"/>
</clipPath>
</defs>
</svg>
